<?xml version="1.0" encoding="utf-8"?>
<!-- Generator: Adobe Illustrator 24.1.2, SVG Export Plug-In . SVG Version: 6.00 Build 0)  -->
<svg version="1.1" id="Capa_1" xmlns="http://www.w3.org/2000/svg" xmlns:xlink="http://www.w3.org/1999/xlink" x="0px" y="0px"
	 viewBox="0 0 1218.9 1218.9" style="enable-background:new 0 0 1218.9 1218.9;" xml:space="preserve">
<style type="text/css">
	.st0{opacity:0;fill:#221F1F;}
	.st1{opacity:0.0244;fill:#221F1F;}
	.st2{opacity:0.0488;fill:#221F1F;}
	.st3{opacity:0.0732;fill:#221F1F;}
	.st4{opacity:0.0976;fill:#221F1F;}
	.st5{opacity:0.122;fill:#221F1F;}
	.st6{opacity:0.1463;fill:#221F1F;}
	.st7{opacity:0.1707;fill:#221F1F;}
	.st8{opacity:0.1951;fill:#221F1F;}
	.st9{opacity:0.2195;fill:#221F1F;}
	.st10{opacity:0.2439;fill:#221F1F;}
	.st11{opacity:0.2683;fill:#221F1F;}
	.st12{opacity:0.2927;fill:#221F1F;}
	.st13{opacity:0.3171;fill:#221F1F;}
	.st14{opacity:0.3415;fill:#221F1F;}
	.st15{opacity:0.3659;fill:#221F1F;}
	.st16{opacity:0.3902;fill:#221F1F;}
	.st17{opacity:0.4146;fill:#221F1F;}
	.st18{opacity:0.439;fill:#221F1F;}
	.st19{opacity:0.4634;fill:#221F1F;}
	.st20{opacity:0.4878;fill:#221F1F;}
	.st21{opacity:0.5122;fill:#221F1F;}
	.st22{opacity:0.5366;fill:#221F1F;}
	.st23{opacity:0.561;fill:#221F1F;}
	.st24{opacity:0.5854;fill:#221F1F;}
	.st25{opacity:0.6098;fill:#221F1F;}
	.st26{opacity:0.6341;fill:#221F1F;}
	.st27{opacity:0.6585;fill:#221F1F;}
	.st28{opacity:0.6829;fill:#221F1F;}
	.st29{opacity:0.7073;fill:#221F1F;}
	.st30{opacity:0.7317;fill:#221F1F;}
	.st31{opacity:0.7561;fill:#221F1F;}
	.st32{opacity:0.7805;fill:#221F1F;}
	.st33{opacity:0.8049;fill:#221F1F;}
	.st34{opacity:0.8293;fill:#221F1F;}
	.st35{opacity:0.8537;fill:#221F1F;}
	.st36{opacity:0.878;fill:#221F1F;}
	.st37{opacity:0.9024;fill:#221F1F;}
	.st38{opacity:0.9268;fill:#221F1F;}
	.st39{opacity:0.9512;fill:#221F1F;}
	.st40{opacity:0.9756;fill:#221F1F;}
	.st41{fill:#221F1F;}
	.st42{fill:#D0D2D3;}
	.st43{fill:#BBBDBF;}
	.st44{fill:#E6E6E7;}
	.st45{fill:#F0F1F1;}
	.st46{fill:#929597;}
	.st47{fill:#914E93;}
	.st48{fill:#29A9E0;}
	.st49{fill:#F69322;}
	.st50{fill:#D34040;}
	.st51{fill:#8BC543;}
	.st52{opacity:0.3;}
	.st53{fill:#FFFFFF;}
	.st54{opacity:0.3;fill:#FFFFFF;}
	.st55{fill:#403F41;}
</style>
<g>
	<path class="st0" d="M673.41,784.1c0,4.83-81.16,8.74-181.29,8.74c-100.13,0-181.3-3.91-181.3-8.74c0-4.82,81.16-8.74,181.3-8.74
		C592.24,775.35,673.41,779.27,673.41,784.1z"/>
	<path class="st1" d="M669.68,784.1c0,4.73-79.49,8.56-177.57,8.56c-98.08,0-177.57-3.83-177.57-8.56c0-4.72,79.49-8.56,177.57-8.56
		C590.18,775.53,669.68,779.37,669.68,784.1z"/>
	<path class="st2" d="M665.95,784.1c0,4.63-77.83,8.38-173.84,8.38c-96.02,0-173.84-3.75-173.84-8.38c0-4.62,77.83-8.38,173.84-8.38
		C588.13,775.71,665.95,779.47,665.95,784.1z"/>
	<path class="st3" d="M662.23,784.1c0,4.53-76.16,8.2-170.11,8.2c-93.96,0-170.12-3.67-170.12-8.2c0-4.52,76.16-8.2,170.12-8.2
		C586.07,775.89,662.23,779.57,662.23,784.1z"/>
	<path class="st4" d="M658.5,784.1c0,4.43-74.49,8.02-166.39,8.02c-91.9,0-166.39-3.59-166.39-8.02c0-4.43,74.49-8.02,166.39-8.02
		C584.01,776.07,658.5,779.67,658.5,784.1z"/>
	<path class="st5" d="M654.77,784.1c0,4.33-72.82,7.84-162.66,7.84c-89.84,0-162.66-3.51-162.66-7.84c0-4.33,72.82-7.84,162.66-7.84
		C581.95,776.25,654.77,779.77,654.77,784.1z"/>
	<path class="st6" d="M651.05,784.1c0,4.23-71.15,7.66-158.93,7.66c-87.78,0-158.94-3.43-158.94-7.66c0-4.23,71.15-7.66,158.94-7.66
		C579.89,776.43,651.05,779.87,651.05,784.1z"/>
	<ellipse class="st7" cx="492.11" cy="784.1" rx="155.21" ry="7.48"/>
	<ellipse class="st8" cx="492.11" cy="784.1" rx="151.48" ry="7.3"/>
	<path class="st9" d="M639.87,784.1c0,3.94-66.15,7.12-147.75,7.12c-81.61,0-147.76-3.19-147.76-7.12c0-3.93,66.15-7.12,147.76-7.12
		C573.72,776.97,639.87,780.17,639.87,784.1z"/>
	<path class="st10" d="M636.14,784.1c0,3.84-64.48,6.94-144.03,6.94c-79.55,0-144.03-3.11-144.03-6.94
		c0-3.83,64.48-6.94,144.03-6.94C571.66,777.15,636.14,780.27,636.14,784.1z"/>
	<path class="st11" d="M632.41,784.1c0,3.74-62.81,6.76-140.3,6.76c-77.49,0-140.3-3.03-140.3-6.76c0-3.73,62.81-6.76,140.3-6.76
		C569.6,777.33,632.41,780.36,632.41,784.1z"/>
	<path class="st12" d="M628.69,784.1c0,3.64-61.14,6.59-136.58,6.59c-75.44,0-136.58-2.95-136.58-6.59
		c0-3.63,61.14-6.58,136.58-6.58C567.54,777.51,628.69,780.46,628.69,784.1z"/>
	<path class="st13" d="M624.96,784.1c0,3.54-59.48,6.41-132.85,6.41c-73.38,0-132.85-2.87-132.85-6.41
		c0-3.53,59.47-6.41,132.85-6.41C565.48,777.69,624.96,780.56,624.96,784.1z"/>
	<ellipse class="st14" cx="492.11" cy="784.1" rx="129.12" ry="6.23"/>
	<ellipse class="st15" cx="492.11" cy="784.1" rx="125.4" ry="6.05"/>
	<path class="st16" d="M613.78,784.1c0,3.24-54.47,5.87-121.67,5.87c-67.2,0-121.67-2.63-121.67-5.87c0-3.24,54.47-5.87,121.67-5.87
		C559.31,778.23,613.78,780.86,613.78,784.1z"/>
	<path class="st17" d="M610.05,784.1c0,3.14-52.8,5.69-117.94,5.69c-65.14,0-117.94-2.54-117.94-5.69c0-3.14,52.8-5.69,117.94-5.69
		C557.25,778.41,610.05,780.96,610.05,784.1z"/>
	<path class="st18" d="M606.33,784.1c0,3.04-51.13,5.51-114.22,5.51c-63.09,0-114.22-2.46-114.22-5.51
		c0-3.04,51.13-5.51,114.22-5.51C555.19,778.59,606.33,781.06,606.33,784.1z"/>
	<path class="st19" d="M602.6,784.1c0,2.94-49.47,5.33-110.49,5.33c-61.03,0-110.49-2.38-110.49-5.33c0-2.94,49.46-5.33,110.49-5.33
		C553.13,778.77,602.6,781.16,602.6,784.1z"/>
	<path class="st20" d="M598.87,784.1c0,2.84-47.8,5.15-106.76,5.15c-58.97,0-106.76-2.3-106.76-5.15c0-2.84,47.79-5.15,106.76-5.15
		C551.08,778.95,598.87,781.26,598.87,784.1z"/>
	<path class="st21" d="M595.15,784.1c0,2.74-46.13,4.97-103.04,4.97c-56.91,0-103.04-2.22-103.04-4.97
		c0-2.74,46.12-4.97,103.04-4.97C549.02,779.13,595.15,781.36,595.15,784.1z"/>
	<path class="st22" d="M591.42,784.1c0,2.65-44.46,4.79-99.31,4.79c-54.85,0-99.31-2.14-99.31-4.79c0-2.64,44.46-4.79,99.31-4.79
		C546.96,779.31,591.42,781.46,591.42,784.1z"/>
	<path class="st23" d="M587.69,784.1c0,2.55-42.79,4.61-95.58,4.61c-52.8,0-95.58-2.06-95.58-4.61c0-2.54,42.79-4.61,95.58-4.61
		C544.9,779.49,587.69,781.55,587.69,784.1z"/>
	<path class="st24" d="M583.97,784.1c0,2.45-41.13,4.43-91.86,4.43c-50.74,0-91.86-1.98-91.86-4.43c0-2.44,41.12-4.43,91.86-4.43
		C542.84,779.67,583.97,781.65,583.97,784.1z"/>
	<path class="st25" d="M580.24,784.1c0,2.35-39.46,4.25-88.13,4.25c-48.68,0-88.13-1.9-88.13-4.25c0-2.34,39.45-4.25,88.13-4.25
		C540.78,779.85,580.24,781.75,580.24,784.1z"/>
	<path class="st26" d="M576.51,784.1c0,2.25-37.79,4.07-84.4,4.07c-46.62,0-84.4-1.82-84.4-4.07c0-2.24,37.78-4.07,84.4-4.07
		C538.73,780.03,576.51,781.85,576.51,784.1z"/>
	<path class="st27" d="M572.79,784.1c0,2.15-36.12,3.89-80.68,3.89c-44.56,0-80.68-1.74-80.68-3.89c0-2.14,36.11-3.89,80.68-3.89
		C536.67,780.21,572.79,781.95,572.79,784.1z"/>
	<path class="st28" d="M569.06,784.1c0,2.05-34.45,3.71-76.95,3.71c-42.5,0-76.95-1.66-76.95-3.71c0-2.04,34.45-3.71,76.95-3.71
		C534.61,780.39,569.06,782.05,569.06,784.1z"/>
	<path class="st29" d="M565.33,784.1c0,1.95-32.78,3.53-73.22,3.53c-40.45,0-73.22-1.58-73.22-3.53c0-1.95,32.78-3.53,73.22-3.53
		C532.55,780.57,565.33,782.15,565.33,784.1z"/>
	<path class="st30" d="M561.61,784.1c0,1.85-31.12,3.35-69.5,3.35c-38.39,0-69.5-1.5-69.5-3.35c0-1.85,31.11-3.35,69.5-3.35
		C530.49,780.75,561.61,782.25,561.61,784.1z"/>
	<path class="st31" d="M557.88,784.1c0,1.75-29.45,3.17-65.77,3.17c-36.33,0-65.77-1.42-65.77-3.17c0-1.75,29.44-3.17,65.77-3.17
		C528.43,780.93,557.88,782.35,557.88,784.1z"/>
	<path class="st32" d="M554.15,784.1c0,1.65-27.78,2.99-62.04,2.99c-34.27,0-62.04-1.34-62.04-2.99c0-1.65,27.77-2.99,62.04-2.99
		C526.38,781.11,554.15,782.45,554.15,784.1z"/>
	<path class="st33" d="M550.43,784.1c0,1.55-26.11,2.81-58.32,2.81c-32.21,0-58.32-1.26-58.32-2.81c0-1.55,26.1-2.81,58.32-2.81
		C524.32,781.29,550.43,782.55,550.43,784.1z"/>
	<path class="st34" d="M546.7,784.1c0,1.45-24.44,2.63-54.59,2.63c-30.16,0-54.59-1.18-54.59-2.63c0-1.45,24.43-2.63,54.59-2.63
		C522.26,781.47,546.7,782.65,546.7,784.1z"/>
	<path class="st35" d="M542.98,784.1c0,1.36-22.77,2.45-50.86,2.45c-28.1,0-50.86-1.1-50.86-2.45c0-1.35,22.77-2.45,50.86-2.45
		C520.2,781.65,542.98,782.75,542.98,784.1z"/>
	<path class="st36" d="M539.25,784.1c0,1.26-21.11,2.27-47.14,2.27c-26.04,0-47.14-1.02-47.14-2.27c0-1.25,21.1-2.27,47.14-2.27
		C518.14,781.83,539.25,782.84,539.25,784.1z"/>
	<path class="st37" d="M535.52,784.1c0,1.16-19.44,2.09-43.41,2.09c-23.98,0-43.41-0.94-43.41-2.09c0-1.15,19.43-2.09,43.41-2.09
		C516.08,782.01,535.52,782.94,535.52,784.1z"/>
	<path class="st38" d="M531.8,784.1c0,1.06-17.77,1.92-39.68,1.92c-21.92,0-39.68-0.86-39.68-1.92c0-1.05,17.76-1.91,39.68-1.91
		C514.03,782.19,531.8,783.04,531.8,784.1z"/>
	<path class="st39" d="M528.07,784.1c0,0.96-16.1,1.74-35.96,1.74c-19.87,0-35.96-0.78-35.96-1.74c0-0.95,16.09-1.73,35.96-1.73
		C511.97,782.37,528.07,783.14,528.07,784.1z"/>
	<path class="st40" d="M524.34,784.1c0,0.86-14.43,1.56-32.23,1.56c-17.81,0-32.23-0.7-32.23-1.56c0-0.86,14.42-1.55,32.23-1.55
		C509.91,782.54,524.34,783.24,524.34,784.1z"/>
	<path class="st41" d="M520.62,784.1c0,0.76-12.77,1.38-28.5,1.38c-15.75,0-28.5-0.62-28.5-1.38c0-0.76,12.76-1.37,28.5-1.37
		C507.85,782.72,520.62,783.34,520.62,784.1z"/>
</g>
<g>
	<path class="st0" d="M1181.05,858.19c0,6.28-148.62,11.36-331.97,11.36s-331.98-5.09-331.98-11.36
		c0-6.27,148.62-11.37,331.98-11.37S1181.05,851.92,1181.05,858.19z"/>
	<path class="st1" d="M1174.22,858.19c0,6.15-145.56,11.13-325.15,11.13c-179.59,0-325.15-4.98-325.15-11.13
		c0-6.14,145.56-11.13,325.15-11.13C1028.66,847.06,1174.22,852.05,1174.22,858.19z"/>
	<path class="st2" d="M1167.4,858.19c0,6.02-142.51,10.89-318.32,10.89c-175.82,0-318.33-4.88-318.33-10.89
		c0-6.01,142.51-10.9,318.33-10.9C1024.89,847.29,1167.4,852.18,1167.4,858.19z"/>
	<path class="st3" d="M1160.58,858.19c0,5.89-139.45,10.66-311.5,10.66c-172.05,0-311.5-4.77-311.5-10.66
		c0-5.88,139.45-10.66,311.5-10.66C1021.12,847.53,1160.58,852.31,1160.58,858.19z"/>
	<path class="st4" d="M1153.75,858.19c0,5.76-136.4,10.43-304.68,10.43c-168.28,0-304.68-4.67-304.68-10.43
		c0-5.75,136.4-10.43,304.68-10.43C1017.36,847.76,1153.75,852.43,1153.75,858.19z"/>
	<path class="st5" d="M1146.93,858.19c0,5.63-133.34,10.19-297.85,10.19c-164.51,0-297.86-4.56-297.86-10.19
		c0-5.63,133.34-10.2,297.86-10.2C1013.59,847.99,1146.93,852.56,1146.93,858.19z"/>
	<path class="st6" d="M1140.1,858.19c0,5.5-130.29,9.96-291.03,9.96c-160.74,0-291.03-4.46-291.03-9.96
		c0-5.5,130.29-9.96,291.03-9.96C1009.82,848.23,1140.1,852.69,1140.1,858.19z"/>
	<path class="st7" d="M1133.28,858.19c0,5.37-127.23,9.73-284.2,9.73c-156.97,0-284.21-4.35-284.21-9.73
		c0-5.37,127.23-9.73,284.21-9.73C1006.05,848.46,1133.28,852.82,1133.28,858.19z"/>
	<path class="st8" d="M1126.46,858.19c0,5.24-124.18,9.49-277.38,9.49c-153.21,0-277.38-4.25-277.38-9.49
		c0-5.24,124.18-9.5,277.38-9.5C1002.28,848.69,1126.46,852.95,1126.46,858.19z"/>
	<path class="st9" d="M1119.63,858.19c0,5.12-121.12,9.26-270.56,9.26c-149.44,0-270.56-4.14-270.56-9.26
		c0-5.11,121.12-9.26,270.56-9.26C998.51,848.93,1119.63,853.08,1119.63,858.19z"/>
	<path class="st10" d="M1112.81,858.19c0,4.99-118.07,9.03-263.73,9.03c-145.67,0-263.74-4.04-263.74-9.03
		c0-4.98,118.07-9.03,263.74-9.03C994.74,849.16,1112.81,853.21,1112.81,858.19z"/>
	<path class="st11" d="M1105.99,858.19c0,4.86-115.01,8.79-256.91,8.79c-141.9,0-256.91-3.94-256.91-8.79
		c0-4.85,115.01-8.79,256.91-8.79C990.97,849.39,1105.99,853.34,1105.99,858.19z"/>
	<path class="st12" d="M1099.16,858.19c0,4.73-111.96,8.56-250.09,8.56c-138.13,0-250.09-3.83-250.09-8.56
		c0-4.72,111.96-8.56,250.09-8.56C987.2,849.63,1099.16,853.47,1099.16,858.19z"/>
	<path class="st13" d="M1092.34,858.19c0,4.6-108.91,8.33-243.26,8.33c-134.36,0-243.26-3.73-243.26-8.33
		c0-4.59,108.9-8.33,243.26-8.33C983.43,849.86,1092.34,853.6,1092.34,858.19z"/>
	<path class="st14" d="M1085.51,858.19c0,4.47-105.85,8.09-236.44,8.09c-130.59,0-236.44-3.62-236.44-8.09
		c0-4.46,105.85-8.09,236.44-8.09C979.66,850.1,1085.51,853.72,1085.51,858.19z"/>
	<ellipse class="st15" cx="849.07" cy="858.19" rx="229.62" ry="7.86"/>
	<path class="st16" d="M1071.87,858.19c0,4.21-99.74,7.63-222.79,7.63c-123.06,0-222.79-3.41-222.79-7.63
		c0-4.21,99.74-7.63,222.79-7.63C972.13,850.56,1071.87,853.98,1071.87,858.19z"/>
	<path class="st17" d="M1065.04,858.19c0,4.08-96.69,7.39-215.97,7.39c-119.29,0-215.97-3.31-215.97-7.39
		c0-4.08,96.68-7.39,215.97-7.39C968.36,850.8,1065.04,854.11,1065.04,858.19z"/>
	<ellipse class="st18" cx="849.08" cy="858.19" rx="209.14" ry="7.16"/>
	<ellipse class="st19" cx="849.08" cy="858.19" rx="202.32" ry="6.92"/>
	<ellipse class="st20" cx="849.08" cy="858.19" rx="195.5" ry="6.69"/>
	<path class="st21" d="M1037.75,858.19c0,3.57-84.47,6.46-188.67,6.46c-104.21,0-188.67-2.89-188.67-6.46
		c0-3.56,84.46-6.46,188.67-6.46C953.28,851.73,1037.75,854.63,1037.75,858.19z"/>
	<path class="st22" d="M1030.92,858.19c0,3.44-81.41,6.22-181.85,6.22c-100.44,0-181.85-2.79-181.85-6.22
		c0-3.43,81.41-6.22,181.85-6.22C949.51,851.97,1030.92,854.76,1030.92,858.19z"/>
	<path class="st23" d="M1024.1,858.19c0,3.31-78.36,5.99-175.03,5.99c-96.67,0-175.03-2.68-175.03-5.99
		c0-3.3,78.35-5.99,175.03-5.99C945.74,852.2,1024.1,854.88,1024.1,858.19z"/>
	<path class="st24" d="M1017.28,858.19c0,3.18-75.3,5.76-168.2,5.76c-92.91,0-168.2-2.58-168.2-5.76c0-3.18,75.29-5.76,168.2-5.76
		C941.97,852.43,1017.28,855.01,1017.28,858.19z"/>
	<path class="st25" d="M1010.45,858.19c0,3.05-72.25,5.52-161.38,5.52c-89.14,0-161.38-2.47-161.38-5.52
		c0-3.05,72.24-5.52,161.38-5.52C938.2,852.67,1010.45,855.14,1010.45,858.19z"/>
	<path class="st26" d="M1003.63,858.19c0,2.92-69.2,5.29-154.55,5.29c-85.37,0-154.55-2.37-154.55-5.29
		c0-2.92,69.19-5.29,154.55-5.29C934.43,852.9,1003.63,855.27,1003.63,858.19z"/>
	<path class="st27" d="M996.81,858.19c0,2.79-66.14,5.06-147.73,5.06c-81.6,0-147.73-2.26-147.73-5.06
		c0-2.79,66.13-5.05,147.73-5.05C930.66,853.13,996.81,855.4,996.81,858.19z"/>
	<path class="st28" d="M989.98,858.19c0,2.66-63.09,4.82-140.91,4.82c-77.83,0-140.91-2.16-140.91-4.82
		c0-2.66,63.07-4.82,140.91-4.82C926.9,853.37,989.98,855.53,989.98,858.19z"/>
	<path class="st29" d="M983.16,858.19c0,2.54-60.03,4.59-134.08,4.59c-74.06,0-134.08-2.05-134.08-4.59
		c0-2.53,60.02-4.59,134.08-4.59C923.13,853.6,983.16,855.66,983.16,858.19z"/>
	<path class="st30" d="M976.33,858.19c0,2.41-56.98,4.36-127.26,4.36c-70.29,0-127.26-1.95-127.26-4.36
		c0-2.4,56.96-4.35,127.26-4.35C919.36,853.84,976.33,855.79,976.33,858.19z"/>
	<path class="st31" d="M969.51,858.19c0,2.28-53.92,4.12-120.44,4.12c-66.52,0-120.43-1.85-120.43-4.12
		c0-2.27,53.91-4.12,120.43-4.12C915.59,854.07,969.51,855.92,969.51,858.19z"/>
	<path class="st32" d="M962.69,858.19c0,2.15-50.87,3.89-113.61,3.89c-62.76,0-113.61-1.74-113.61-3.89
		c0-2.14,50.85-3.89,113.61-3.89C911.82,854.3,962.69,856.05,962.69,858.19z"/>
	<path class="st33" d="M955.86,858.19c0,2.02-47.81,3.66-106.79,3.66c-58.99,0-106.79-1.64-106.79-3.66
		c0-2.01,47.8-3.65,106.79-3.65C908.05,854.54,955.86,856.17,955.86,858.19z"/>
	<path class="st34" d="M949.04,858.19c0,1.89-44.76,3.42-99.96,3.42c-55.22,0-99.96-1.53-99.96-3.42c0-1.89,44.74-3.42,99.96-3.42
		C904.28,854.77,949.04,856.3,949.04,858.19z"/>
	<path class="st35" d="M942.22,858.19c0,1.76-41.7,3.19-93.14,3.19c-51.45,0-93.14-1.43-93.14-3.19c0-1.76,41.69-3.19,93.14-3.19
		C900.51,855,942.22,856.43,942.22,858.19z"/>
	<path class="st36" d="M935.39,858.19c0,1.63-38.65,2.96-86.32,2.96c-47.68,0-86.31-1.32-86.31-2.96c0-1.63,38.63-2.95,86.31-2.95
		C896.74,855.24,935.39,856.56,935.39,858.19z"/>
	<path class="st37" d="M928.57,858.19c0,1.5-35.59,2.72-79.49,2.72c-43.91,0-79.49-1.22-79.49-2.72c0-1.5,35.58-2.72,79.49-2.72
		C892.97,855.47,928.57,856.69,928.57,858.19z"/>
	<path class="st38" d="M921.75,858.19c0,1.38-32.54,2.49-72.67,2.49c-40.14,0-72.67-1.11-72.67-2.49c0-1.37,32.52-2.48,72.67-2.48
		C889.21,855.71,921.75,856.82,921.75,858.19z"/>
	<path class="st39" d="M914.92,858.19c0,1.25-29.49,2.25-65.85,2.25c-36.37,0-65.84-1.01-65.84-2.25c0-1.24,29.47-2.25,65.84-2.25
		C885.44,855.94,914.92,856.95,914.92,858.19z"/>
	<path class="st40" d="M908.1,858.19c0,1.12-26.43,2.02-59.02,2.02c-32.61,0-59.02-0.9-59.02-2.02c0-1.11,26.41-2.02,59.02-2.02
		C881.67,856.17,908.1,857.08,908.1,858.19z"/>
	<path class="st41" d="M901.27,858.19c0,0.99-23.38,1.79-52.2,1.79c-28.84,0-52.19-0.8-52.19-1.79c0-0.98,23.36-1.78,52.19-1.78
		C877.9,856.41,901.27,857.21,901.27,858.19z"/>
</g>
<g>
	<path class="st0" d="M401.02,860.18c0,5.41-36.9,9.81-82.41,9.81c-45.52,0-82.42-4.39-82.42-9.81c0-5.41,36.9-9.81,82.42-9.81
		C364.12,850.37,401.02,854.76,401.02,860.18z"/>
	<ellipse class="st1" cx="318.6" cy="860.18" rx="80.72" ry="9.61"/>
	<path class="st2" d="M397.63,860.18c0,5.19-35.38,9.4-79.03,9.4c-43.65,0-79.03-4.21-79.03-9.4s35.38-9.41,79.03-9.41
		C362.25,850.77,397.63,854.98,397.63,860.18z"/>
	<ellipse class="st3" cx="318.6" cy="860.18" rx="77.33" ry="9.2"/>
	<path class="st4" d="M394.24,860.18c0,4.97-33.86,9-75.64,9c-41.78,0-75.64-4.03-75.64-9c0-4.97,33.86-9,75.64-9
		C360.38,851.17,394.24,855.21,394.24,860.18z"/>
	<ellipse class="st5" cx="318.6" cy="860.18" rx="73.94" ry="8.8"/>
	<ellipse class="st6" cx="318.6" cy="860.18" rx="72.25" ry="8.6"/>
	<path class="st7" d="M389.16,860.18c0,4.64-31.59,8.4-70.56,8.4c-38.97,0-70.56-3.76-70.56-8.4c0-4.63,31.59-8.4,70.56-8.4
		C357.57,851.78,389.16,855.54,389.16,860.18z"/>
	<ellipse class="st8" cx="318.6" cy="860.18" rx="68.86" ry="8.2"/>
	<path class="st9" d="M385.77,860.18c0,4.41-30.07,7.99-67.17,7.99c-37.1,0-67.17-3.58-67.17-7.99c0-4.41,30.07-7.99,67.17-7.99
		C355.7,852.18,385.77,855.76,385.77,860.18z"/>
	<path class="st10" d="M384.08,860.18c0,4.3-29.31,7.79-65.47,7.79s-65.47-3.49-65.47-7.79c0-4.3,29.31-7.79,65.47-7.79
		S384.08,855.88,384.08,860.18z"/>
	<ellipse class="st11" cx="318.6" cy="860.18" rx="63.78" ry="7.59"/>
	<path class="st12" d="M380.69,860.18c0,4.08-27.79,7.39-62.09,7.39c-34.29,0-62.09-3.31-62.09-7.39c0-4.08,27.8-7.39,62.09-7.39
		C352.89,852.79,380.69,856.1,380.69,860.18z"/>
	<path class="st13" d="M379,860.18c0,3.97-27.04,7.19-60.39,7.19c-33.36,0-60.39-3.22-60.39-7.19c0-3.97,27.04-7.19,60.39-7.19
		C351.96,852.99,379,856.21,379,860.18z"/>
	<path class="st14" d="M377.3,860.18c0,3.86-26.28,6.99-58.7,6.99c-32.42,0-58.7-3.13-58.7-6.99c0-3.86,26.28-6.99,58.7-6.99
		C351.02,853.19,377.3,856.32,377.3,860.18z"/>
	<path class="st15" d="M375.61,860.18c0,3.75-25.52,6.78-57,6.78c-31.48,0-57-3.04-57-6.78c0-3.75,25.52-6.78,57-6.78
		C350.09,853.39,375.61,856.43,375.61,860.18z"/>
	<ellipse class="st16" cx="318.6" cy="860.18" rx="55.31" ry="6.58"/>
	<path class="st17" d="M372.22,860.18c0,3.52-24,6.38-53.62,6.38c-29.61,0-53.62-2.86-53.62-6.38c0-3.52,24-6.38,53.62-6.38
		C348.22,853.8,372.22,856.65,372.22,860.18z"/>
	<path class="st18" d="M370.53,860.18c0,3.41-23.25,6.18-51.92,6.18c-28.68,0-51.92-2.77-51.92-6.18c0-3.41,23.24-6.18,51.92-6.18
		C347.28,854,370.53,856.76,370.53,860.18z"/>
	<path class="st19" d="M368.83,860.18c0,3.3-22.49,5.98-50.23,5.98c-27.74,0-50.23-2.68-50.23-5.98c0-3.3,22.49-5.98,50.23-5.98
		C346.34,854.2,368.83,856.88,368.83,860.18z"/>
	<path class="st20" d="M367.14,860.18c0,3.19-21.73,5.78-48.53,5.78c-26.81,0-48.53-2.59-48.53-5.78c0-3.19,21.73-5.78,48.53-5.78
		C345.41,854.4,367.14,856.99,367.14,860.18z"/>
	<path class="st21" d="M365.44,860.18c0,3.08-20.97,5.57-46.84,5.57c-25.87,0-46.84-2.5-46.84-5.57c0-3.08,20.97-5.57,46.84-5.57
		C344.47,854.6,365.44,857.1,365.44,860.18z"/>
	<path class="st22" d="M363.75,860.18c0,2.97-20.21,5.37-45.14,5.37c-24.94,0-45.15-2.41-45.15-5.37c0-2.97,20.21-5.37,45.15-5.37
		C343.54,854.8,363.75,857.21,363.75,860.18z"/>
	<path class="st23" d="M362.06,860.18c0,2.86-19.45,5.17-43.45,5.17c-24,0-43.45-2.31-43.45-5.17c0-2.85,19.45-5.17,43.45-5.17
		C342.6,855.01,362.06,857.32,362.06,860.18z"/>
	<path class="st24" d="M360.36,860.18c0,2.75-18.7,4.97-41.76,4.97c-23.06,0-41.76-2.22-41.76-4.97c0-2.74,18.69-4.97,41.76-4.97
		C341.67,855.21,360.36,857.43,360.36,860.18z"/>
	<path class="st25" d="M358.67,860.18c0,2.63-17.94,4.77-40.06,4.77c-22.13,0-40.06-2.13-40.06-4.77c0-2.63,17.94-4.77,40.06-4.77
		C340.73,855.41,358.67,857.54,358.67,860.18z"/>
	<path class="st26" d="M356.97,860.18c0,2.52-17.18,4.57-38.37,4.57c-21.19,0-38.37-2.04-38.37-4.57c0-2.52,17.18-4.57,38.37-4.57
		C339.79,855.61,356.97,857.66,356.97,860.18z"/>
	<path class="st27" d="M355.28,860.18c0,2.41-16.42,4.37-36.67,4.37c-20.26,0-36.68-1.95-36.68-4.37c0-2.41,16.42-4.36,36.68-4.36
		C338.86,855.81,355.28,857.77,355.28,860.18z"/>
	<path class="st28" d="M353.58,860.18c0,2.3-15.66,4.16-34.98,4.16c-19.32,0-34.98-1.86-34.98-4.16c0-2.3,15.66-4.16,34.98-4.16
		C337.92,856.01,353.58,857.88,353.58,860.18z"/>
	<path class="st29" d="M351.89,860.18c0,2.19-14.9,3.96-33.29,3.96c-18.39,0-33.29-1.77-33.29-3.96c0-2.19,14.9-3.96,33.29-3.96
		C336.99,856.22,351.89,857.99,351.89,860.18z"/>
	<path class="st30" d="M350.2,860.18c0,2.08-14.14,3.76-31.59,3.76c-17.45,0-31.59-1.68-31.59-3.76c0-2.08,14.14-3.76,31.59-3.76
		C336.05,856.42,350.2,858.1,350.2,860.18z"/>
	<path class="st31" d="M348.5,860.18c0,1.97-13.39,3.56-29.9,3.56c-16.51,0-29.9-1.59-29.9-3.56c0-1.96,13.38-3.56,29.9-3.56
		C335.12,856.62,348.5,858.21,348.5,860.18z"/>
	<path class="st32" d="M346.81,860.18c0,1.86-12.63,3.36-28.2,3.36c-15.58,0-28.21-1.5-28.21-3.36c0-1.85,12.63-3.36,28.21-3.36
		C334.18,856.82,346.81,858.32,346.81,860.18z"/>
	<path class="st33" d="M345.11,860.18c0,1.75-11.87,3.16-26.51,3.16c-14.64,0-26.51-1.41-26.51-3.16c0-1.74,11.87-3.15,26.51-3.15
		C333.24,857.02,345.11,858.43,345.11,860.18z"/>
	<path class="st34" d="M343.42,860.18c0,1.63-11.11,2.95-24.82,2.95c-13.71,0-24.82-1.32-24.82-2.95c0-1.63,11.11-2.95,24.82-2.95
		C332.31,857.22,343.42,858.54,343.42,860.18z"/>
	<path class="st35" d="M341.73,860.18c0,1.52-10.35,2.75-23.12,2.75c-12.77,0-23.12-1.23-23.12-2.75c0-1.52,10.35-2.75,23.12-2.75
		C331.37,857.43,341.73,858.66,341.73,860.18z"/>
	<path class="st36" d="M340.03,860.18c0,1.41-9.6,2.55-21.43,2.55c-11.84,0-21.43-1.14-21.43-2.55c0-1.41,9.59-2.55,21.43-2.55
		C330.44,857.63,340.03,858.77,340.03,860.18z"/>
	<path class="st37" d="M338.34,860.18c0,1.3-8.84,2.35-19.73,2.35c-10.9,0-19.73-1.05-19.73-2.35c0-1.3,8.83-2.35,19.73-2.35
		C329.5,857.83,338.34,858.88,338.34,860.18z"/>
	<path class="st38" d="M336.64,860.18c0,1.19-8.08,2.15-18.04,2.15c-9.97,0-18.04-0.96-18.04-2.15c0-1.19,8.08-2.15,18.04-2.15
		C328.57,858.03,336.64,858.99,336.64,860.18z"/>
	<path class="st39" d="M334.95,860.18c0,1.08-7.32,1.95-16.35,1.95c-9.03,0-16.35-0.87-16.35-1.95c0-1.07,7.32-1.94,16.35-1.94
		C327.63,858.23,334.95,859.1,334.95,860.18z"/>
	<path class="st40" d="M333.26,860.18c0,0.97-6.56,1.74-14.65,1.74c-8.09,0-14.65-0.78-14.65-1.74c0-0.96,6.56-1.74,14.65-1.74
		C326.69,858.43,333.26,859.21,333.26,860.18z"/>
	<path class="st41" d="M331.56,860.18c0,0.86-5.8,1.54-12.96,1.54c-7.16,0-12.96-0.69-12.96-1.54c0-0.85,5.8-1.54,12.96-1.54
		C325.76,858.64,331.56,859.32,331.56,860.18z"/>
</g>
<g>
	<path class="st0" d="M340.42,804.19c0,7.86-62.42,14.22-139.42,14.22c-77.01,0-139.43-6.37-139.43-14.22
		c0-7.85,62.42-14.22,139.43-14.22C278,789.97,340.42,796.34,340.42,804.19z"/>
	<path class="st1" d="M337.55,804.19c0,7.69-61.13,13.93-136.56,13.93c-75.42,0-136.56-6.24-136.56-13.93
		c0-7.68,61.14-13.92,136.56-13.92C276.42,790.26,337.55,796.5,337.55,804.19z"/>
	<path class="st2" d="M334.69,804.19c0,7.53-59.85,13.64-133.69,13.64c-73.84,0-133.69-6.1-133.69-13.64
		c0-7.52,59.85-13.63,133.69-13.63C274.84,790.56,334.69,796.66,334.69,804.19z"/>
	<path class="st3" d="M331.82,804.19c0,7.37-58.57,13.35-130.83,13.35c-72.26,0-130.83-5.97-130.83-13.35
		c0-7.36,58.57-13.34,130.83-13.34C273.25,790.85,331.82,796.83,331.82,804.19z"/>
	<path class="st4" d="M328.95,804.19c0,7.21-57.29,13.05-127.96,13.05c-70.68,0-127.96-5.84-127.96-13.05
		c0-7.2,57.29-13.05,127.96-13.05C271.67,791.14,328.95,796.99,328.95,804.19z"/>
	<path class="st5" d="M326.09,804.19c0,7.05-56,12.76-125.1,12.76c-69.09,0-125.1-5.71-125.1-12.76c0-7.04,56-12.75,125.1-12.75
		C270.09,791.43,326.09,797.15,326.09,804.19z"/>
	<path class="st6" d="M323.22,804.19c0,6.89-54.72,12.47-122.23,12.47c-67.51,0-122.23-5.58-122.23-12.47
		c0-6.88,54.72-12.46,122.23-12.46C268.5,791.72,323.22,797.31,323.22,804.19z"/>
	<path class="st7" d="M320.36,804.19c0,6.73-53.44,12.18-119.36,12.18s-119.36-5.45-119.36-12.18c0-6.72,53.44-12.17,119.36-12.17
		S320.36,797.47,320.36,804.19z"/>
	<path class="st8" d="M317.49,804.19c0,6.57-52.15,11.88-116.5,11.88c-64.34,0-116.5-5.32-116.5-11.88
		c0-6.55,52.15-11.88,116.5-11.88C265.34,792.31,317.49,797.63,317.49,804.19z"/>
	<path class="st9" d="M314.63,804.19c0,6.4-50.87,11.59-113.63,11.59s-113.63-5.19-113.63-11.59c0-6.39,50.87-11.59,113.63-11.59
		S314.63,797.79,314.63,804.19z"/>
	<path class="st10" d="M311.76,804.19c0,6.24-49.59,11.3-110.77,11.3c-61.18,0-110.77-5.06-110.77-11.3
		c0-6.23,49.59-11.29,110.77-11.29C262.17,792.89,311.76,797.96,311.76,804.19z"/>
	<path class="st11" d="M308.89,804.19c0,6.08-48.31,11.01-107.9,11.01c-59.6,0-107.9-4.93-107.9-11.01c0-6.07,48.31-11,107.9-11
		C260.59,793.19,308.89,798.12,308.89,804.19z"/>
	<path class="st12" d="M306.03,804.19c0,5.92-47.02,10.72-105.03,10.72c-58.01,0-105.03-4.79-105.03-10.72
		c0-5.91,47.02-10.71,105.03-10.71C259.01,793.48,306.03,798.28,306.03,804.19z"/>
	<path class="st13" d="M303.16,804.19c0,5.76-45.74,10.42-102.17,10.42c-56.43,0-102.17-4.67-102.17-10.42
		c0-5.75,45.74-10.42,102.17-10.42C257.42,793.77,303.16,798.44,303.16,804.19z"/>
	<path class="st14" d="M300.3,804.19c0,5.6-44.46,10.13-99.3,10.13c-54.85,0-99.3-4.53-99.3-10.13c0-5.59,44.46-10.12,99.3-10.12
		C255.84,794.06,300.3,798.6,300.3,804.19z"/>
	<path class="st15" d="M297.43,804.19c0,5.44-43.17,9.84-96.44,9.84c-53.26,0-96.44-4.4-96.44-9.84c0-5.43,43.17-9.83,96.44-9.83
		C254.26,794.36,297.43,798.76,297.43,804.19z"/>
	<path class="st16" d="M294.56,804.19c0,5.28-41.89,9.55-93.57,9.55c-51.68,0-93.57-4.27-93.57-9.55c0-5.26,41.89-9.54,93.57-9.54
		C252.67,794.65,294.56,798.92,294.56,804.19z"/>
	<path class="st17" d="M291.7,804.19c0,5.11-40.61,9.25-90.7,9.25c-50.1,0-90.71-4.14-90.71-9.25c0-5.1,40.61-9.25,90.71-9.25
		C251.09,794.94,291.7,799.09,291.7,804.19z"/>
	<path class="st18" d="M288.83,804.19c0,4.95-39.32,8.96-87.84,8.96c-48.52,0-87.84-4.01-87.84-8.96c0-4.94,39.32-8.95,87.84-8.95
		C249.51,795.23,288.83,799.25,288.83,804.19z"/>
	<path class="st19" d="M285.97,804.19c0,4.79-38.04,8.67-84.97,8.67c-46.93,0-84.97-3.88-84.97-8.67c0-4.78,38.04-8.66,84.97-8.66
		C247.92,795.53,285.97,799.41,285.97,804.19z"/>
	<path class="st20" d="M283.1,804.19c0,4.63-36.76,8.38-82.11,8.38c-45.35,0-82.11-3.75-82.11-8.38c0-4.62,36.76-8.37,82.11-8.37
		C246.34,795.82,283.1,799.57,283.1,804.19z"/>
	<path class="st21" d="M280.23,804.19c0,4.47-35.48,8.09-79.24,8.09c-43.77,0-79.24-3.62-79.24-8.09c0-4.46,35.47-8.08,79.24-8.08
		C244.76,796.11,280.23,799.73,280.23,804.19z"/>
	<path class="st22" d="M277.37,804.19c0,4.31-34.19,7.79-76.38,7.79c-42.18,0-76.37-3.49-76.37-7.79c0-4.3,34.19-7.79,76.37-7.79
		C243.18,796.4,277.37,799.89,277.37,804.19z"/>
	<path class="st23" d="M274.5,804.19c0,4.15-32.91,7.5-73.51,7.5c-40.6,0-73.51-3.35-73.51-7.5c0-4.13,32.91-7.49,73.51-7.49
		C241.59,796.69,274.5,800.05,274.5,804.19z"/>
	<path class="st24" d="M271.64,804.19c0,3.99-31.63,7.21-70.64,7.21c-39.02,0-70.64-3.22-70.64-7.21c0-3.97,31.62-7.2,70.64-7.2
		C240.01,796.99,271.64,800.21,271.64,804.19z"/>
	<path class="st25" d="M268.77,804.19c0,3.82-30.34,6.92-67.78,6.92c-37.44,0-67.78-3.09-67.78-6.92c0-3.81,30.34-6.91,67.78-6.91
		C238.43,797.28,268.77,800.38,268.77,804.19z"/>
	<path class="st26" d="M265.91,804.19c0,3.66-29.06,6.62-64.91,6.62c-35.85,0-64.91-2.96-64.91-6.62c0-3.65,29.06-6.62,64.91-6.62
		C236.84,797.57,265.91,800.54,265.91,804.19z"/>
	<path class="st27" d="M263.04,804.19c0,3.5-27.78,6.33-62.05,6.33c-34.27,0-62.05-2.83-62.05-6.33c0-3.49,27.78-6.32,62.05-6.32
		C235.26,797.86,263.04,800.7,263.04,804.19z"/>
	<path class="st28" d="M260.17,804.19c0,3.34-26.5,6.04-59.18,6.04c-32.69,0-59.18-2.7-59.18-6.04c0-3.33,26.49-6.03,59.18-6.03
		C233.68,798.16,260.17,800.86,260.17,804.19z"/>
	<path class="st29" d="M257.31,804.19c0,3.18-25.21,5.75-56.31,5.75c-31.1,0-56.31-2.57-56.31-5.75c0-3.17,25.21-5.74,56.31-5.74
		C232.09,798.45,257.31,801.02,257.31,804.19z"/>
	<path class="st30" d="M254.44,804.19c0,3.02-23.93,5.46-53.45,5.46c-29.52,0-53.45-2.44-53.45-5.46c0-3,23.93-5.45,53.45-5.45
		C230.51,798.74,254.44,801.18,254.44,804.19z"/>
	<path class="st31" d="M251.58,804.19c0,2.86-22.65,5.16-50.58,5.16c-27.94,0-50.58-2.31-50.58-5.16c0-2.84,22.64-5.15,50.58-5.15
		C228.93,799.03,251.58,801.34,251.58,804.19z"/>
	<path class="st32" d="M248.71,804.19c0,2.7-21.36,4.87-47.72,4.87c-26.36,0-47.72-2.17-47.72-4.87c0-2.68,21.36-4.86,47.72-4.86
		C227.35,799.33,248.71,801.5,248.71,804.19z"/>
	<path class="st33" d="M245.84,804.19c0,2.53-20.08,4.58-44.85,4.58c-24.77,0-44.85-2.04-44.85-4.58c0-2.52,20.08-4.57,44.85-4.57
		C225.76,799.62,245.84,801.67,245.84,804.19z"/>
	<path class="st34" d="M242.98,804.19c0,2.37-18.8,4.29-41.98,4.29c-23.19,0-41.98-1.91-41.98-4.29c0-2.36,18.79-4.28,41.98-4.28
		C224.18,799.91,242.98,801.83,242.98,804.19z"/>
	<path class="st35" d="M240.11,804.19c0,2.21-17.52,3.99-39.12,3.99c-21.61,0-39.12-1.78-39.12-3.99c0-2.2,17.51-3.98,39.12-3.98
		C222.6,800.2,240.11,801.99,240.11,804.19z"/>
	<path class="st36" d="M237.25,804.19c0,2.05-16.23,3.7-36.25,3.7c-20.02,0-36.25-1.65-36.25-3.7c0-2.04,16.23-3.69,36.25-3.69
		C221.01,800.5,237.25,802.15,237.25,804.19z"/>
	<path class="st37" d="M234.38,804.19c0,1.89-14.95,3.41-33.39,3.41c-18.44,0-33.39-1.52-33.39-3.41c0-1.88,14.94-3.4,33.39-3.4
		C219.43,800.79,234.38,802.31,234.38,804.19z"/>
	<path class="st38" d="M231.51,804.19c0,1.73-13.67,3.12-30.52,3.12c-16.86,0-30.52-1.39-30.52-3.12c0-1.71,13.66-3.11,30.52-3.11
		C217.85,801.08,231.51,802.47,231.51,804.19z"/>
	<path class="st39" d="M228.65,804.19c0,1.57-12.38,2.83-27.65,2.83c-15.28,0-27.65-1.26-27.65-2.83c0-1.55,12.38-2.82,27.65-2.82
		C216.26,801.37,228.65,802.63,228.65,804.19z"/>
	<path class="st40" d="M225.78,804.19c0,1.41-11.1,2.53-24.79,2.53c-13.69,0-24.79-1.13-24.79-2.53c0-1.39,11.09-2.52,24.79-2.52
		C214.68,801.67,225.78,802.8,225.78,804.19z"/>
	<path class="st41" d="M222.92,804.19c0,1.24-9.82,2.24-21.92,2.24c-12.11,0-21.92-1-21.92-2.24c0-1.23,9.81-2.23,21.92-2.23
		C213.1,801.96,222.92,802.96,222.92,804.19z"/>
</g>
<g>
	<g>
		<g>
			<polygon class="st42" points="574.8,771.49 413.68,771.49 436.98,662.79 551.51,662.79 			"/>
			<polygon class="st43" points="564.68,724.25 551.51,662.79 436.98,662.79 423.8,724.25 			"/>
			<path class="st44" d="M608.57,784.02H379.92c-12.13,0-14-16.06-14-16.06h256.65C622.56,767.97,620.7,784.02,608.57,784.02z"/>
		</g>
		<path class="st41" d="M796.65,641.04c0,14.75-11.95,26.7-26.7,26.7H218.54c-14.75,0-26.7-11.95-26.7-26.7V320.65
			c0-14.75,11.95-26.7,26.7-26.7h551.41c14.75,0,26.7,11.96,26.7,26.7V641.04z"/>
		<path class="st44" d="M191.84,633.81v52.54c0,14.74,11.95,26.7,26.7,26.7h551.41c14.75,0,26.7-11.95,26.7-26.7v-52.54H191.84z"/>
		<rect x="211.35" y="319.17" class="st45" width="565.78" height="290.7"/>
		<circle class="st46" cx="494.24" cy="672.03" r="19.32"/>
	</g>
	<g>
		<rect x="286.61" y="332.97" class="st47" width="123.23" height="27.09"/>
		<rect x="432.63" y="332.97" class="st43" width="269.24" height="27.09"/>
		<rect x="286.61" y="372.41" class="st48" width="415.26" height="74.64"/>
		<rect x="286.62" y="462.07" class="st49" width="123.23" height="75.52"/>
		<rect x="432.63" y="462.07" class="st50" width="123.23" height="75.52"/>
		<rect x="578.65" y="462.07" class="st51" width="123.23" height="75.52"/>
		<g>
			<rect x="286.62" y="549.09" class="st46" width="123.23" height="10.73"/>
			<rect x="286.62" y="568.06" class="st43" width="123.23" height="10.73"/>
			<rect x="286.62" y="587.03" class="st43" width="123.23" height="10.73"/>
		</g>
		<g>
			<rect x="432.63" y="549.09" class="st46" width="123.23" height="10.73"/>
			<rect x="432.63" y="568.06" class="st43" width="123.23" height="10.73"/>
			<rect x="432.63" y="587.03" class="st43" width="123.23" height="10.73"/>
		</g>
		<g>
			<rect x="578.65" y="549.09" class="st46" width="123.23" height="10.73"/>
			<rect x="578.65" y="568.06" class="st43" width="123.23" height="10.73"/>
			<rect x="578.65" y="587.03" class="st43" width="123.23" height="10.73"/>
		</g>
	</g>
	<g class="st52">
		<path class="st53" d="M769.95,294.36H387.2l253.01,419.1h129.74c14.75,0,26.7-11.95,26.7-26.7v-45.31v-7.23V321.06
			C796.65,306.31,784.7,294.36,769.95,294.36z"/>
	</g>
</g>
<g>
	<g>
		<path class="st41" d="M1069.98,842.34V566.77c0-13.13-10.64-23.78-23.78-23.78H649.38c-13.13,0-23.78,10.65-23.78,23.78v275.58
			H1069.98z"/>
		<path class="st43" d="M1105.42,858.56H590.16c-10.69,0-12.33-14.15-12.33-14.15h539.92
			C1117.75,844.41,1116.1,858.56,1105.42,858.56z"/>
		<rect x="577.83" y="838.89" class="st44" width="539.92" height="7.93"/>
		<rect x="795.69" y="838.89" class="st43" width="104.2" height="4.5"/>
		<rect x="642.98" y="565.45" class="st45" width="409.62" height="258.86"/>
	</g>
	<g>
		<rect x="661.56" y="577.7" class="st47" width="109.73" height="24.12"/>
		<rect x="791.59" y="577.7" class="st43" width="239.75" height="24.12"/>
		<rect x="661.56" y="612.83" class="st48" width="369.78" height="66.46"/>
		<rect x="661.56" y="692.67" class="st49" width="109.73" height="67.25"/>
		<rect x="791.59" y="692.67" class="st50" width="109.73" height="67.25"/>
		<rect x="921.61" y="692.67" class="st51" width="109.73" height="67.25"/>
		<g>
			<rect x="661.56" y="770.15" class="st46" width="109.73" height="9.55"/>
			<rect x="661.56" y="787.05" class="st43" width="109.73" height="9.55"/>
			<rect x="661.56" y="803.94" class="st43" width="109.73" height="9.55"/>
		</g>
		<g>
			<rect x="791.59" y="770.15" class="st46" width="109.73" height="9.55"/>
			<rect x="791.59" y="787.05" class="st43" width="109.73" height="9.55"/>
			<rect x="791.59" y="803.94" class="st43" width="109.73" height="9.55"/>
		</g>
		<g>
			<rect x="921.61" y="770.15" class="st46" width="109.73" height="9.55"/>
			<rect x="921.61" y="787.05" class="st43" width="109.73" height="9.55"/>
			<rect x="921.61" y="803.94" class="st43" width="109.73" height="9.55"/>
		</g>
	</g>
	<path class="st54" d="M1070.12,837.93V566.77c0-13.13-10.64-23.78-23.77-23.78H773.1l178.05,294.94H1070.12z"/>
</g>
<g>
	<g>
		<path class="st41" d="M113.59,807.37c-7.35,0-13.3-5.96-13.3-13.3V526.21c0-7.35,5.95-13.3,13.3-13.3h179.14
			c7.35,0,13.3,5.96,13.3,13.3v267.85c0,7.35-5.95,13.3-13.3,13.3H113.59z"/>
		<rect x="114.31" y="541.56" class="st45" width="177.7" height="237.16"/>
		<path class="st55" d="M217.03,793.8c0,2.69-2.18,4.87-4.88,4.87h-15.32c-2.69,0-4.87-2.18-4.87-4.87l0,0
			c0-2.69,2.18-4.87,4.87-4.87h15.32C214.85,788.93,217.03,791.1,217.03,793.8L217.03,793.8z"/>
	</g>
	<g>
		<rect x="123.7" y="554.64" class="st47" width="55" height="23.4"/>
		<rect x="188.44" y="554.64" class="st43" width="94.13" height="23.4"/>
		<rect x="123.7" y="590.63" class="st48" width="158.86" height="65.76"/>
		<rect x="123.7" y="668.94" class="st49" width="72.26" height="44.29"/>
		<rect x="209.32" y="668.94" class="st50" width="72.26" height="44.29"/>
		<g>
			<rect x="123.7" y="724.06" class="st46" width="72.26" height="6.29"/>
			<rect x="123.7" y="736.89" class="st43" width="72.26" height="6.29"/>
			<rect x="123.7" y="749.73" class="st43" width="72.26" height="6.29"/>
			<rect x="123.7" y="762.56" class="st43" width="72.26" height="6.29"/>
		</g>
		<g>
			<rect x="209.32" y="724.06" class="st46" width="72.26" height="6.29"/>
			<rect x="209.32" y="736.89" class="st43" width="72.26" height="6.29"/>
			<rect x="209.32" y="749.73" class="st43" width="72.26" height="6.29"/>
			<rect x="209.32" y="762.56" class="st43" width="72.26" height="6.29"/>
		</g>
	</g>
	<path class="st54" d="M286.19,807.36h6.54c7.35,0,13.31-5.96,13.31-13.3V526.21c0-7.35-5.96-13.3-13.31-13.3H113.59
		c-1.64,0-3.2,0.31-4.65,0.85L286.19,807.36z"/>
</g>
<g>
	<g>
		<path class="st41" d="M379.01,849.81c0,6.5-5.27,11.77-11.77,11.77h-95.89c-6.5,0-11.77-5.27-11.77-11.77V666.45
			c0-6.5,5.27-11.77,11.77-11.77h95.89c6.5,0,11.77,5.27,11.77,11.77V849.81z"/>
		<rect x="266.94" y="680.69" class="st45" width="104.72" height="151.87"/>
		<path class="st55" d="M323.7,669.07c0,2.43-1.97,4.4-4.4,4.4c-2.43,0-4.4-1.97-4.4-4.4c0-2.43,1.97-4.4,4.4-4.4
			C321.73,664.67,323.7,666.64,323.7,669.07z"/>
		<path class="st55" d="M331.75,847.21c0,2.67-2.17,4.84-4.84,4.84h-15.22c-2.68,0-4.84-2.17-4.84-4.84l0,0
			c0-2.68,2.17-4.84,4.84-4.84h15.22C329.58,842.37,331.75,844.54,331.75,847.21L331.75,847.21z"/>
	</g>
	<g>
		<rect x="272.2" y="685.52" class="st47" width="94.49" height="15.26"/>
		<rect x="272.2" y="705.89" class="st43" width="94.48" height="16.89"/>
		<rect x="272.2" y="729.03" class="st48" width="94.49" height="38.13"/>
		<rect x="272.2" y="773.2" class="st49" width="94.49" height="52.67"/>
	</g>
	<path class="st54" d="M377.28,855.19c0.83-1.61,1.31-3.44,1.31-5.38V666.45c0-6.5-5.27-11.77-11.77-11.77h-95.89
		c-4.7,0-8.74,2.76-10.63,6.75L377.28,855.19z"/>
</g>
</svg>
